<?xml version="1.0" encoding="UTF-8" standalone="no"?><!DOCTYPE svg PUBLIC "-//W3C//DTD SVG 1.1//EN" "http://www.w3.org/Graphics/SVG/1.1/DTD/svg11.dtd"><svg width="100%" height="100%" viewBox="0 0 746 846" version="1.1" xmlns="http://www.w3.org/2000/svg" xmlns:xlink="http://www.w3.org/1999/xlink" xml:space="preserve" xmlns:serif="http://www.serif.com/" style="fill-rule:evenodd;clip-rule:evenodd;stroke-linejoin:round;stroke-miterlimit:2;"><rect id="アートボード1" x="0" y="0" width="745.833" height="845.833" style="fill:none;"/><path d="M297.5,357.917c-23.75,-0 -42.5,20.833 -42.5,46.25c-0,25.416 19.167,46.25 42.5,46.25c23.75,-0 42.5,-20.834 42.5,-46.25c0.417,-25.417 -18.75,-46.25 -42.5,-46.25Zm152.083,-0c-23.75,-0 -42.5,20.833 -42.5,46.25c0,25.416 19.167,46.25 42.5,46.25c23.75,-0 42.5,-20.834 42.5,-46.25c0,-25.417 -18.75,-46.25 -42.5,-46.25Z" style="fill:#fff;fill-rule:nonzero;"/><path d="M652.083,8.333l-558.333,0c-47.083,0 -85.417,38.334 -85.417,85.834l0,563.333c0,47.5 38.334,85.833 85.417,85.833l472.5,0l-22.083,-77.083l53.333,49.583l50.417,46.667l89.583,79.167l-0,-747.5c-0,-47.5 -38.333,-85.834 -85.417,-85.834Zm-160.833,544.167c-0,0 -15,-17.917 -27.5,-33.75c54.583,-15.417 75.417,-49.583 75.417,-49.583c-17.084,11.25 -33.334,19.166 -47.917,24.583c-20.833,8.75 -40.833,14.583 -60.417,17.917c-40,7.5 -76.666,5.416 -107.916,-0.417c-23.75,-4.583 -44.167,-11.25 -61.25,-17.917c-9.584,-3.75 -20,-8.333 -30.417,-14.166c-1.25,-0.834 -2.5,-1.25 -3.75,-2.084c-0.833,-0.416 -1.25,-0.833 -1.667,-1.25c-7.5,-4.166 -11.666,-7.083 -11.666,-7.083c-0,-0 20,33.333 72.916,49.167c-12.5,15.833 -27.916,34.583 -27.916,34.583c-92.084,-2.917 -127.084,-63.333 -127.084,-63.333c0,-134.167 60,-242.917 60,-242.917c60,-45 117.084,-43.75 117.084,-43.75l4.166,5c-75,21.667 -109.583,54.583 -109.583,54.583c0,0 9.167,-5 24.583,-12.083c44.584,-19.583 80,-25 94.584,-26.25c2.5,-0.417 4.583,-0.833 7.083,-0.833c25.417,-3.334 54.167,-4.167 84.167,-0.834c39.583,4.584 82.083,16.25 125.416,40c0,0 -32.916,-31.25 -103.75,-52.916l5.834,-6.667c-0,0 57.083,-1.25 117.083,43.75c-0,0 60,108.75 60,242.917c-0,-0 -35.417,60.416 -127.5,63.333Z" style="fill:#fff;fill-rule:nonzero;"/></svg>