<?xml version="1.0" encoding="UTF-8" standalone="no"?><!DOCTYPE svg PUBLIC "-//W3C//DTD SVG 1.1//EN" "http://www.w3.org/Graphics/SVG/1.1/DTD/svg11.dtd"><svg width="100%" height="100%" viewBox="0 0 1059 884" version="1.1" xmlns="http://www.w3.org/2000/svg" xmlns:xlink="http://www.w3.org/1999/xlink" xml:space="preserve" xmlns:serif="http://www.serif.com/" style="fill-rule:evenodd;clip-rule:evenodd;stroke-linejoin:round;stroke-miterlimit:2;"><rect id="アートボード1" x="-0" y="-0" width="1058.33" height="883.333" style="fill:none;"/><clipPath id="_clip1"><rect x="-0" y="-0" width="1058.33" height="883.333"/></clipPath><g clip-path="url(#_clip1)"><rect x="-300" y="-387.5" width="1666.67" height="1666.67" style="fill:none;"/><path d="M340.083,869.125c393.084,-0 608.084,-325.667 608.084,-608.083c-0,-9.25 -0,-18.459 -0.625,-27.625c41.825,-30.254 77.932,-67.714 106.625,-110.625c-39.005,17.283 -80.383,28.618 -122.75,33.625c44.602,-26.702 78.009,-68.731 93.958,-118.209c-41.951,24.894 -87.849,42.438 -135.708,51.875c-40.41,-42.969 -96.846,-67.366 -155.832,-67.366c-117.351,-0 -213.916,96.565 -213.916,213.917c-0,16.28 1.858,32.507 5.539,48.366c-171.751,-8.61 -331.992,-89.845 -440.458,-223.292c-56.404,97.101 -27.22,222.932 66.167,285.292c-34.009,-1.008 -67.282,-10.184 -97,-26.75l-0,2.708c0.027,101.348 72.117,189.432 171.458,209.5c-31.462,8.581 -64.477,9.835 -96.5,3.667c27.928,86.842 108.461,146.704 199.667,148.417c-75.663,59.464 -169.184,91.763 -265.417,91.666c-17.004,-0.032 -33.992,-1.062 -50.875,-3.083c97.724,62.713 211.467,95.988 327.583,95.833" style="fill:#1da1f2;fill-rule:nonzero;"/></g></svg>